<svg width="32" height="32" viewBox="0 0 32 32" xmlns="http://www.w3.org/2000/svg">
  <defs>
    <clipPath id="circle-clip-cn">
      <circle cx="16" cy="16" r="15"/>
    </clipPath>
  </defs>
  <circle cx="16" cy="16" r="16" fill="#ffffff" stroke="#e0e0e0" stroke-width="1"/>
  <g clip-path="url(#circle-clip-cn)">
    <rect x="0" y="0" width="32" height="32" fill="#de2910"/>
    <!-- Large star -->
    <polygon points="8,6 9.5,10.5 14,10.5 10.5,13 12,17.5 8,15 4,17.5 5.5,13 2,10.5 6.5,10.5" fill="#ffde00"/>
    <!-- Small stars -->
    <polygon points="18,4 18.5,5.5 20,5.5 19,6.5 19.5,8 18,7 16.5,8 17,6.5 16,5.5 17.5,5.5" fill="#ffde00"/>
    <polygon points="20,8 20.5,9.5 22,9.5 21,10.5 21.5,12 20,11 18.5,12 19,10.5 18,9.5 19.5,9.5" fill="#ffde00"/>
    <polygon points="20,14 20.5,15.5 22,15.5 21,16.5 21.5,18 20,17 18.5,18 19,16.5 18,15.5 19.5,15.5" fill="#ffde00"/>
    <polygon points="18,18 18.5,19.5 20,19.5 19,20.5 19.5,22 18,21 16.5,22 17,20.5 16,19.5 17.5,19.5" fill="#ffde00"/>
  </g>
</svg>